<?xml version="1.0" encoding="UTF-8" standalone="no"?>
<!DOCTYPE svg PUBLIC "-//W3C//DTD SVG 1.1//EN" "http://www.w3.org/Graphics/SVG/1.1/DTD/svg11.dtd">
<svg width="100%" height="100%" viewBox="0 0 507 62" version="1.1" xmlns="http://www.w3.org/2000/svg" xmlns:xlink="http://www.w3.org/1999/xlink" xml:space="preserve" xmlns:serif="http://www.serif.com/" style="fill-rule:evenodd;clip-rule:evenodd;stroke-linejoin:round;stroke-miterlimit:2;">
    <g transform="matrix(1,0,0,1,-16896.1,-4410.1)">
        <g transform="matrix(1,0,0,1,-0.728385,0)">
            <g id="Molmo" transform="matrix(0.32348,-5.85899e-34,8.72466e-33,0.30106,16835.9,4157.55)">
                <g transform="matrix(0.860155,0,0,0.92421,-350.816,447.1)">
                    <path d="M709.1,520L668.1,520L668.1,481L701.1,481C705.5,481 709.1,477.4 709.1,473L709.1,440L748.1,440L748.1,481C748.1,502.6 730.6,520 709.1,520ZM668.1,524L627.1,524L627.1,563L660.1,563C664.5,563 668.1,566.6 668.1,571L668.1,604L707.1,604L707.1,563C707.1,541.4 689.6,524 668.1,524ZM799.2,522C794.8,522 791.2,518.4 791.2,514L791.2,481L752.2,481L752.2,522C752.2,543.6 769.7,561 791.2,561L832.2,561L832.2,522L799.2,522ZM711.1,604L711.1,645L750.1,645L750.1,612C750.1,607.6 753.7,604 758.1,604L791.1,604L791.1,565L750.1,565C728.5,565 711.1,582.5 711.1,604Z" style="fill:rgb(222,93,154);fill-rule:nonzero;"/>
                </g>
                <g transform="matrix(1.16866,0,0,1.25568,-118.748,104.055)">
                    <path d="M1483.84,728.295L1560.31,664.109C1567.88,657.775 1573.09,652.098 1575.95,647.078C1578.81,642.057 1580.23,636.148 1580.23,629.351C1580.23,621.009 1577.49,614.328 1572.01,609.307C1566.52,604.287 1558.3,601.777 1547.33,601.777C1532.35,601.777 1521.38,605.948 1514.43,614.289C1507.47,622.631 1503.84,634.912 1503.54,651.133L1483.61,651.133C1483.92,631.668 1489.13,615.911 1499.25,603.862C1509.37,591.813 1525.32,585.788 1547.1,585.788C1565.33,585.788 1578.77,589.882 1587.42,598.069C1596.07,606.256 1600.39,616.607 1600.39,629.119C1600.39,638.852 1597.57,647.811 1591.94,655.999C1586.3,664.186 1576.84,673.764 1563.55,684.732L1511.41,728.295L1603.41,728.295L1603.41,744.052L1483.84,744.052L1483.84,728.295Z" style="fill:rgb(222,93,154);fill-rule:nonzero;"/>
                </g>
                <g transform="matrix(0.854454,0,0,0.974293,-104.207,413.436)">
                    <path d="M815.296,641.424L783.324,641.424L783.324,470.314L720.002,641.424L677.787,641.424L614.465,470.314L614.465,641.424L582.494,641.424L582.494,446.914L638.056,446.914L699.205,612.174L760.354,446.914L815.296,446.914L815.296,641.424Z" style="fill:rgb(222,93,154);fill-rule:nonzero;"/>
                    <path d="M917.418,646.104C900.036,646.104 885.343,642.691 873.341,635.866C861.339,629.042 852.337,619.73 846.336,607.933C840.335,596.136 837.334,582.827 837.334,568.007C837.334,553.383 840.335,540.22 846.336,528.521C852.337,516.821 861.339,507.558 873.341,500.734C885.343,493.909 900.036,490.496 917.418,490.496C934.801,490.496 949.493,493.909 961.495,500.734C973.497,507.558 982.499,516.87 988.5,528.667C994.501,540.464 997.502,553.578 997.502,568.007C997.502,582.632 994.501,595.843 988.5,607.641C982.499,619.438 973.497,628.798 961.495,635.72C949.493,642.643 934.801,646.104 917.418,646.104ZM868.685,568.3C868.685,587.605 872.565,601.498 880.325,609.981C888.085,618.463 900.449,622.704 917.418,622.704C934.387,622.704 946.751,618.463 954.511,609.981C962.271,601.498 966.151,587.605 966.151,568.3C966.151,548.995 962.271,535.102 954.511,526.619C946.751,518.137 934.387,513.896 917.418,513.896C900.449,513.896 888.085,518.137 880.325,526.619C872.565,535.102 868.685,548.995 868.685,568.3Z" style="fill:rgb(222,93,154);fill-rule:nonzero;"/>
                    <rect x="1021.09" y="436.677" width="31.04" height="204.747" style="fill:rgb(222,93,154);fill-rule:nonzero;"/>
                    <path d="M1302.01,552.798C1302.01,539.343 1299.21,529.642 1293.63,523.694C1288.04,517.747 1279.87,514.773 1269.1,514.773C1254.41,514.773 1243.39,519.941 1236.05,530.276C1228.7,540.61 1225.03,557.088 1225.03,579.707L1225.03,641.424L1194.61,641.424L1194.61,552.798C1194.61,539.343 1191.81,529.642 1186.23,523.694C1180.64,517.747 1172.47,514.773 1161.7,514.773C1147.22,514.773 1136.25,519.941 1128.8,530.276C1121.35,540.61 1117.63,557.088 1117.63,579.707L1117.63,641.424L1086.59,641.424L1086.59,495.176L1117.63,495.176L1117.63,527.058C1127.98,502.684 1146.18,490.496 1172.26,490.496C1186.54,490.496 1197.82,493.665 1206.09,500.002C1214.37,506.34 1219.96,515.748 1222.85,528.228C1233.2,503.074 1252.14,490.496 1279.66,490.496C1315.25,490.496 1333.05,510.386 1333.05,550.165L1333.05,641.424L1302.01,641.424L1302.01,552.798Z" style="fill:rgb(222,93,154);fill-rule:nonzero;"/>
                    <path d="M1433.31,646.104C1415.92,646.104 1401.23,642.691 1389.23,635.866C1377.23,629.042 1368.23,619.73 1362.23,607.933C1356.22,596.136 1353.22,582.827 1353.22,568.007C1353.22,553.383 1356.22,540.22 1362.23,528.521C1368.23,516.821 1377.23,507.558 1389.23,500.734C1401.23,493.909 1415.92,490.496 1433.31,490.496C1450.69,490.496 1465.38,493.909 1477.38,500.734C1489.39,507.558 1498.39,516.87 1504.39,528.667C1510.39,540.464 1513.39,553.578 1513.39,568.007C1513.39,582.632 1510.39,595.843 1504.39,607.641C1498.39,619.438 1489.39,628.798 1477.38,635.72C1465.38,642.643 1450.69,646.104 1433.31,646.104ZM1384.57,568.3C1384.57,587.605 1388.45,601.498 1396.21,609.981C1403.97,618.463 1416.34,622.704 1433.31,622.704C1450.28,622.704 1462.64,618.463 1470.4,609.981C1478.16,601.498 1482.04,587.605 1482.04,568.3C1482.04,548.995 1478.16,535.102 1470.4,526.619C1462.64,518.137 1450.28,513.896 1433.31,513.896C1416.34,513.896 1403.97,518.137 1396.21,526.619C1388.45,535.102 1384.57,548.995 1384.57,568.3Z" style="fill:rgb(222,93,154);fill-rule:nonzero;"/>
                    <path d="M1687.22,641.424L1668.9,595.21L1568.95,595.21L1550.64,641.424L1518.36,641.424L1595.03,446.914L1643.14,446.914L1719.81,641.424L1687.22,641.424ZM1578.58,570.932L1659.28,570.932L1618.93,468.267L1578.58,570.932Z" style="fill:rgb(222,93,154);fill-rule:nonzero;"/>
                    <path d="M1724.78,568.3C1724.78,553.48 1727.83,540.22 1733.93,528.521C1740.04,516.821 1749.04,507.558 1760.94,500.734C1772.84,493.909 1787.27,490.496 1804.24,490.496C1827.62,490.496 1845.68,495.907 1858.4,506.73C1871.13,517.552 1877.91,531.933 1878.74,549.873L1849.56,549.873C1848.11,539.148 1843.87,530.471 1836.83,523.841C1829.8,517.211 1819.35,513.896 1805.48,513.896C1789.55,513.896 1777.34,518.137 1768.85,526.619C1760.37,535.102 1756.13,548.995 1756.13,568.3C1756.13,587.8 1760.27,601.742 1768.54,610.127C1776.82,618.512 1788.92,622.704 1804.86,622.704C1819.14,622.704 1830.05,619.243 1837.61,612.321C1845.16,605.398 1849.66,596.282 1851.11,584.972L1880.29,584.972C1879.87,596.087 1876.72,606.276 1870.82,615.538C1864.92,624.8 1856.39,632.21 1845.21,637.768C1834.04,643.325 1820.59,646.104 1804.86,646.104C1787.89,646.104 1773.4,642.691 1761.4,635.866C1749.4,629.042 1740.3,619.779 1734.09,608.079C1727.88,596.38 1724.78,583.12 1724.78,568.3Z" style="fill:rgb(222,93,154);fill-rule:nonzero;"/>
                    <path d="M1958.2,641.424C1945.78,641.424 1936.21,639.913 1929.49,636.89C1922.76,633.868 1918.05,629.285 1915.36,623.143C1912.67,617 1911.33,608.762 1911.33,598.427L1911.33,517.698L1881.84,517.698L1881.84,502.489L1914.12,491.959L1926.85,462.124L1942.37,462.124L1942.37,495.176L1992.03,495.176L1992.03,517.698L1942.37,517.698L1942.37,618.024L1988.93,618.024L1988.93,641.424L1958.2,641.424Z" style="fill:rgb(222,93,154);fill-rule:nonzero;"/>
                </g>
            </g>
        </g>
    </g>
</svg>
